<svg xmlns="http://www.w3.org/2000/svg" viewBox="0 0 275.1 77.4"><style>.st0{fill:#c8c8c8}.st1{fill:#97c740}.st2{fill:#636464}</style><path class="st0" d="M69.7 55H100v-7.5H77.3v-9.1h21.9v-7.1H77.3V22H100v-7.4H69.7V55zM137.3 14.6h-9.5l-15.3 17.1V14.6h-7.7V55h7.7V37.1L129.4 55h9.4l-19.5-20.9zM160.2 14.6L142.1 55h8.3l3.5-7.6H175l3.4 7.6h8.3l-18.1-40.4h-8.4zm-3.4 25.7l7.5-17.2 7.5 17.2h-15zM207.5 14.6h-15.9V55h15.9c14.2 0 20.4-10.3 20.2-20.6-.2-10-6.4-19.8-20.2-19.8zm0 33.1h-8.3V21.8h8.3c8.8 0 12.5 6.3 12.7 12.6.1 6.6-3.5 13.3-12.7 13.3zM253.4 13.7c-14 0-20.8 10.7-20.8 21.3s6.6 20.9 20.8 20.9c14.2 0 20.6-10.5 20.7-20.9.1-10.6-6.8-21.3-20.7-21.3zm0 35.2c-9.5 0-13.1-7.1-13.3-13.7-.2-6.8 3.8-14.5 13.3-14.5s13.3 7.6 13.2 14.4c-.1 6.7-3.7 13.8-13.2 13.8z"/><path class="st1" d="M262.1 34.8c0 5.5 8.3 5.5 8.3 0s-8.3-5.5-8.3 0z"/><path class="st0" d="M53.6 55V20.7L34.4 46l2.9 3.7L46 38.5V55z"/><path class="st0" d="M13.9 1.2v5.7h45.2v53.3H5.8V14.3H.2v51.5h64.6V1.2z"/><g><path class="st1" d="M44.9 14.5L32.2 31.9 19.5 14.5h-8.8V55h7.7V25.5l13.8 17.7 21.4-28.7zM.2 5.2c0 5.4 8.2 5.4 8.2 0S.2-.2.2 5.2z"/></g><g><path class="st2" d="M109.4 73.9l-3.5-9.2h-.1c.1.7.1 1.6.1 2.6v6.6h-1.1V63.5h1.8l3.3 8.6h.1l3.3-8.6h1.8v10.4h-1.2v-6.7c0-.8 0-1.6.1-2.5l-3.6 9.2h-1zM123.8 73.9H118V63.5h5.8v1.1h-4.6V68h4.3v1h-4.3v3.8h4.6v1.1zM132.9 70.9c0 1-.3 1.8-.9 2.3-.6.5-1.5.7-2.8.7h-3.1V63.5h6.2v1.1h-4.9V68h1.6c.9 0 1.7.1 2.2.3.6.2 1 .5 1.3.9.3.4.4 1 .4 1.7zm-5.5 2h1.7c.9 0 1.6-.2 2-.5.4-.3.6-.8.6-1.5s-.2-1.2-.6-1.4c-.4-.3-1.1-.4-2.2-.4h-1.5v3.8zM142.5 73.9h-1.2v-9.4h-3.4l-.2 1.7c-.3 2.3-.5 3.9-.8 5-.2 1.1-.5 1.8-.9 2.2-.4.4-.8.6-1.4.6-.4 0-.7-.1-.9-.2v-1c.3.1.5.2.8.2.3 0 .5-.1.7-.3.2-.2.4-.6.5-1.1.1-.5.3-1.5.6-2.9.2-1.4.5-3.2.7-5.3h5.6v10.5zM145.4 73.9V63.5h1.2v10.4h-1.2zM161.5 76.6h-1.2v-2.7H153v2.7h-1.2v-3.8h.8c.7-1.2 1.4-2.7 1.9-4.5.5-1.8.8-3.4.9-4.8h4.7v9.3h1.3v3.8zm-2.5-3.8v-8.2h-2.4c-.1 1.2-.4 2.5-.9 4.1-.5 1.6-1.1 3-1.7 4.1h5zM171.4 73.9h-1.2v-9.4h-3.4l-.2 1.7c-.3 2.3-.5 3.9-.8 5-.2 1.1-.5 1.8-.9 2.2-.4.4-.8.6-1.4.6-.4 0-.7-.1-.9-.2v-1c.3.1.5.2.8.2.3 0 .5-.1.7-.3.2-.2.4-.6.5-1.1.1-.5.3-1.5.6-2.9.2-1.4.5-3.2.7-5.3h5.6v10.5zM177.4 69.6l-2.7 4.4h-1.4l2.9-4.6c-.8-.2-1.3-.6-1.7-1.1-.3-.5-.5-1.1-.5-1.9 0-.9.3-1.6 1-2.2s1.6-.8 2.9-.8h2.9v10.4h-1.2v-4.4h-2.2zm2.1-5.1h-1.6c-.9 0-1.5.1-2 .4s-.7.8-.7 1.5c0 1.4.9 2.1 2.7 2.1h1.6v-4zM195.6 76.6h-1.2v-2.7h-7.3v2.7H186v-3.8h.8c.7-1.2 1.4-2.7 1.9-4.5.5-1.8.8-3.4.9-4.8h4.7v9.3h1.3v3.8zm-2.5-3.8v-8.2h-2.4c-.1 1.2-.4 2.5-.9 4.1-.5 1.6-1.1 3-1.7 4.1h5zM206.4 68.7c0 1.7-.4 3-1.3 3.9-.8 1-2 1.4-3.5 1.4s-2.7-.5-3.6-1.4c-.8-.9-1.3-2.3-1.3-4 0-1.7.4-3 1.3-3.9.8-.9 2-1.4 3.6-1.4 1.5 0 2.7.5 3.5 1.4.9 1 1.3 2.3 1.3 4zm-8.3 0c0 1.4.3 2.5.9 3.2.6.7 1.5 1.1 2.6 1.1 1.2 0 2-.4 2.6-1.1.6-.7.9-1.8.9-3.2 0-1.4-.3-2.5-.9-3.2-.6-.7-1.5-1.1-2.6-1.1-1.2 0-2 .4-2.6 1.1-.6.7-.9 1.8-.9 3.2zM213.4 73.9l-3.5-9.2h-.1c.1.7.1 1.6.1 2.6v6.6h-1.1V63.5h1.8l3.3 8.6h.1l3.3-8.6h1.8v10.4h-1.2v-6.7c0-.8 0-1.6.1-2.5h-.1l-3.6 9.2h-.9zM222.6 74.1c-.5 0-1-.1-1.4-.2v-1.2c.4.2.9.3 1.3.3.5 0 .9-.1 1.3-.4.3-.2.6-.7.9-1.4l-4.1-7.8h1.3l3.1 5.9c.1.2.2.5.3.7h.1c.1-.4.2-.7.3-.8l2.6-5.9h1.3l-3.3 7.5c-.4.9-.8 1.5-1.1 1.9-.3.4-.7.7-1.1.9-.4.4-.9.5-1.5.5z"/></g></svg>